M48
; DRILL file {KiCad 5.1.12} date Ср 29 дек 2021 22:32:31
; FORMAT={-:-/ absolute / inch / decimal}
; #@! TF.CreationDate,2021-12-29T22:32:31+01:00
; #@! TF.GenerationSoftware,Kicad,Pcbnew,5.1.12
; #@! TF.FileFunction,Plated,1,2,PTH
FMAT,2
INCH
T1C0.0315
T2C0.0394
%
G90
G05
T1
X4.074Y-2.1106
X4.0807Y-2.2286
X4.0827Y-2.3526
X4.234Y-2.4546
X4.234Y-2.7546
X4.356Y-2.4566
X4.356Y-2.7519
X4.374Y-2.1106
X4.376Y-2.2286
X4.378Y-2.3526
X4.4094Y-2.9528
X4.468Y-2.0326
X4.468Y-2.1526
X4.474Y-2.4466
X4.474Y-2.7466
X4.5094Y-2.9528
X4.592Y-2.4486
X4.592Y-2.7439
X4.6094Y-2.9528
X4.72Y-2.2486
X4.72Y-2.3486
X4.72Y-2.4486
X4.75Y-2.5806
X4.75Y-2.8806
X4.768Y-2.0326
X4.768Y-2.1526
X4.89Y-2.3486
X4.89Y-2.6486
X4.994Y-2.0326
X4.994Y-2.3326
X5.008Y-2.6446
X5.008Y-2.9446
X5.114Y-2.4306
X5.114Y-2.7306
X5.116Y-2.0326
X5.116Y-2.3279
X5.192Y-1.9146
X5.232Y-2.6446
X5.232Y-2.9399
X5.2465Y-2.2481
X5.2465Y-2.3481
X5.2465Y-2.4481
X5.39Y-2.2274
X5.39Y-2.5226
X5.39Y-2.6406
X5.39Y-2.9406
X5.492Y-1.9146
X5.494Y-2.0126
X5.498Y-2.1326
X5.508Y-2.2294
X5.508Y-2.5246
X5.51Y-2.6446
X5.51Y-2.9399
X5.638Y-2.2274
X5.638Y-2.5226
X5.7087Y-2.9528
X5.765Y-2.4256
X5.765Y-2.7256
X5.794Y-2.0126
X5.798Y-2.1326
X5.8087Y-2.9528
X5.89Y-2.4279
X5.89Y-2.7231
X5.9087Y-2.9528
X6.053Y-2.2456
X6.053Y-2.3456
X6.053Y-2.4456
X6.07Y-2.5856
X6.07Y-2.8856
X6.215Y-2.3231
X6.215Y-2.6231
X6.3225Y-2.0156
X6.3225Y-2.3156
X6.3325Y-2.6381
X6.3325Y-2.9381
X6.4425Y-2.0181
X6.4425Y-2.3134
X6.45Y-2.4156
X6.45Y-2.7156
X6.57Y-2.63
X6.57Y-2.9253
X6.5925Y-2.2426
X6.5925Y-2.3426
X6.5925Y-2.4426
X6.69Y-2.63
X6.69Y-2.93
X6.77Y-2.2156
X6.77Y-2.5109
T2
X4.03Y-1.99
X4.09Y-2.4586
X4.09Y-2.5586
X4.13Y-1.99
X6.89Y-2.54
X6.89Y-2.64
T0
M30
