%FSLAX45Y45*%
G04 Gerber Fmt 4.5, Leading zero omitted, Abs format (unit mm)*
G04 Created by KiCad (PCBNEW 5.1.12) date 2021-12-29 22:32:32*
%MOMM*%
%LPD*%
G01*
G04 APERTURE LIST*
%TA.AperFunction,Profile*%
%ADD10C,0.050000*%
%TD*%
%ADD11C,0.200000*%
%ADD12C,0.300000*%
G04 APERTURE END LIST*
D10*
X17627600Y-7493000D02*
G75*
G03*
X17627600Y-7493000I-152400J0D01*
G01*
X10337800Y-4622800D02*
G75*
G03*
X10337800Y-4622800I-152400J0D01*
G01*
X17627600Y-4624400D02*
G75*
G03*
X17627600Y-4624400I-152400J0D01*
G01*
X10365100Y-7500000D02*
G75*
G03*
X10365100Y-7500000I-152400J0D01*
G01*
X9842500Y-4323080D02*
X9842500Y-7874000D01*
X17868900Y-4320540D02*
X9842500Y-4323080D01*
X17868900Y-7874000D02*
X17868900Y-4320540D01*
X9842500Y-7874000D02*
X17868900Y-7874000D01*
D11*
D12*
X10126428Y-8342214D02*
X10126428Y-8042214D01*
X10197857Y-8042214D01*
X10240714Y-8056500D01*
X10269286Y-8085071D01*
X10283571Y-8113643D01*
X10297857Y-8170786D01*
X10297857Y-8213643D01*
X10283571Y-8270786D01*
X10269286Y-8299357D01*
X10240714Y-8327929D01*
X10197857Y-8342214D01*
X10126428Y-8342214D01*
X10426428Y-8342214D02*
X10426428Y-8142214D01*
X10426428Y-8199357D02*
X10440714Y-8170786D01*
X10455000Y-8156500D01*
X10483571Y-8142214D01*
X10512143Y-8142214D01*
X10612143Y-8342214D02*
X10612143Y-8142214D01*
X10612143Y-8042214D02*
X10597857Y-8056500D01*
X10612143Y-8070786D01*
X10626428Y-8056500D01*
X10612143Y-8042214D01*
X10612143Y-8070786D01*
X10797857Y-8342214D02*
X10769286Y-8327929D01*
X10755000Y-8299357D01*
X10755000Y-8042214D01*
X10955000Y-8342214D02*
X10926428Y-8327929D01*
X10912143Y-8299357D01*
X10912143Y-8042214D01*
X11297857Y-8342214D02*
X11297857Y-8042214D01*
X11397857Y-8256500D01*
X11497857Y-8042214D01*
X11497857Y-8342214D01*
X11769286Y-8342214D02*
X11769286Y-8185071D01*
X11755000Y-8156500D01*
X11726428Y-8142214D01*
X11669286Y-8142214D01*
X11640714Y-8156500D01*
X11769286Y-8327929D02*
X11740714Y-8342214D01*
X11669286Y-8342214D01*
X11640714Y-8327929D01*
X11626428Y-8299357D01*
X11626428Y-8270786D01*
X11640714Y-8242214D01*
X11669286Y-8227929D01*
X11740714Y-8227929D01*
X11769286Y-8213643D01*
X11912143Y-8142214D02*
X11912143Y-8442214D01*
X11912143Y-8156500D02*
X11940714Y-8142214D01*
X11997857Y-8142214D01*
X12026428Y-8156500D01*
X12040714Y-8170786D01*
X12055000Y-8199357D01*
X12055000Y-8285071D01*
X12040714Y-8313643D01*
X12026428Y-8327929D01*
X11997857Y-8342214D01*
X11940714Y-8342214D01*
X11912143Y-8327929D01*
X12183571Y-8313643D02*
X12197857Y-8327929D01*
X12183571Y-8342214D01*
X12169286Y-8327929D01*
X12183571Y-8313643D01*
X12183571Y-8342214D01*
X12183571Y-8156500D02*
X12197857Y-8170786D01*
X12183571Y-8185071D01*
X12169286Y-8170786D01*
X12183571Y-8156500D01*
X12183571Y-8185071D01*
M02*
